<?xml version="1.0" encoding="utf-8"?>
<!-- Generator: Adobe Illustrator 27.5.0, SVG Export Plug-In . SVG Version: 6.00 Build 0)  -->
<svg version="1.1" id="Capa_1" xmlns="http://www.w3.org/2000/svg" xmlns:xlink="http://www.w3.org/1999/xlink" x="0px" y="0px"
	 viewBox="0 0 425.2 425.2" style="enable-background:new 0 0 425.2 425.2;" xml:space="preserve">
<rect x="0.002" y="0.002" style="fill:#191A36;" width="425.197" height="425.196"/>
<g>
	<g>
		<g>
			<g>
				<g>
					<path style="fill:#212441;" d="M266.615,80.307C266.615,80.307,266.615,80.307,266.615,80.307l-2.322-15.582
						c-0.131-0.895-0.794-1.62-1.67-1.835l-1.579-0.387c-0.878-0.216-1.8,0.121-2.332,0.853l-9.266,12.727
						c-0.004,0.005-0.01,0.012-0.013,0.018l-5.677,7.796c-0.725,0.996-0.506,2.39,0.49,3.113c0.241,0.176,0.506,0.297,0.779,0.364
						c0.854,0.209,1.786-0.101,2.336-0.854l4.788-6.575l10.283,2.524l1.198,8.044c0.183,1.219,1.316,2.058,2.534,1.878
						c1.217-0.181,2.057-1.315,1.876-2.533L266.615,80.307z M254.982,76.048l5.389-7.401l1.349,9.055L254.982,76.048z"/>
					<path style="fill:#212441;" d="M295.407,71.277c-0.792-0.944-2.198-1.066-3.14-0.277l-8.931,7.486l-3.905-10.566
						c-0.429-1.156-1.71-1.745-2.863-1.318c-1.155,0.427-1.745,1.709-1.318,2.864l4.457,12.062l-9.977,8.362
						c-0.943,0.791-1.067,2.196-0.275,3.141c0.314,0.377,0.729,0.622,1.175,0.732c0.665,0.163,1.398,0.018,1.964-0.457l8.755-7.339
						l3.827,10.357c0.267,0.721,0.869,1.222,1.562,1.393c0.417,0.102,0.869,0.085,1.301-0.074c1.156-0.427,1.747-1.709,1.318-2.864
						l-4.381-11.853l10.151-8.508C296.072,73.627,296.196,72.22,295.407,71.277z"/>
					<path style="fill:#212441;" d="M250.693,64.765c1.195,0.294,2.401-0.438,2.696-1.634c0.292-1.195-0.439-2.402-1.634-2.695
						L236.7,56.74c-1.196-0.293-2.403,0.438-2.696,1.633c-0.294,1.196,0.438,2.403,1.633,2.696L241,62.386l-4.942,20.129
						c-0.293,1.195,0.438,2.402,1.635,2.695c1.196,0.294,2.401-0.438,2.695-1.632l4.941-20.13L250.693,64.765z"/>
				</g>
			</g>
			<g>
				<path style="fill:#212441;" d="M341.298,98.736c-0.001-0.004-0.002-0.007-0.002-0.011l-2.417-16.573
					c-0.122-0.839-0.742-1.521-1.565-1.724l-1.665-0.408c-0.824-0.203-1.688,0.115-2.186,0.802l-9.814,13.566
					c-0.005,0.005-0.008,0.011-0.014,0.017l-6.013,8.313c-0.676,0.932-0.467,2.235,0.465,2.91c0.226,0.163,0.471,0.274,0.724,0.336
					c0.8,0.196,1.674-0.095,2.186-0.802L326.18,98l11.199,2.75l1.276,8.747c0.167,1.14,1.225,1.928,2.364,1.762
					c1.138-0.166,1.928-1.225,1.76-2.364L341.298,98.736z M328.817,94.355l6.349-8.774l1.564,10.716L328.817,94.355z"/>
				<path style="fill:#212441;" d="M321.775,91.657c1.949-7.938-1.212-14.455-7.872-16.508c-0.117-0.054-0.241-0.101-0.371-0.132
					l-5.689-1.397c-1.118-0.274-2.247,0.409-2.521,1.527l-5.79,23.583c-0.273,1.119,0.41,2.247,1.529,2.521l5.688,1.397
					c0.222,0.055,0.441,0.061,0.657,0.045C314.149,103.808,319.85,99.498,321.775,91.657z M307.349,98.44
					c-0.162-0.039-0.321-0.054-0.481-0.055l-2.79-0.684l4.796-19.536l3.256,0.799c5.895,1.447,6.7,7.206,5.598,11.699
					C316.624,95.156,313.244,99.888,307.349,98.44z"/>
				<path style="fill:#212441;" d="M367.348,88.351c-0.696-0.916-2.004-1.095-2.92-0.399l-11.932,9.058l-6.38-13.554
					c-0.49-1.041-1.732-1.488-2.773-0.997c-1.042,0.49-1.49,1.731-0.998,2.773l7.162,15.215l-2.516,10.252
					c-0.275,1.118,0.409,2.246,1.527,2.521c1.118,0.274,2.246-0.41,2.521-1.527l2.516-10.251l13.393-10.169
					C367.865,90.575,368.043,89.269,367.348,88.351z"/>
			</g>
		</g>
		<g>
			<path style="fill:#212441;" d="M358.264,125.138l-131.855-32.37c-4.783-1.174-7.719-6.021-6.544-10.804l7.097-28.916
				c1.175-4.783,6.022-7.719,10.805-6.545l131.855,32.37c4.782,1.174,7.719,6.021,6.545,10.804l-7.1,28.915
				C367.894,123.376,363.047,126.312,358.264,125.138z M237.198,48.817c-3.507-0.861-7.062,1.293-7.923,4.8l-7.099,28.916
				c-0.861,3.508,1.293,7.062,4.799,7.923l131.855,32.37c3.507,0.861,7.062-1.292,7.924-4.799l7.099-28.916
				c0.861-3.507-1.292-7.062-4.8-7.923L237.198,48.817z"/>
		</g>
	</g>
	<g>
		<g>
			<path style="fill:#212441;" d="M381.516,276.433l-8.43-0.051c0,0.016,0,0.038,0,0.054l-4.594,0.002l15.563-109.519l-17.42-23.849
				l-0.075-0.01l-0.057-0.078l-0.01,0.068l-134.761-19.15l-0.035,0.246l-1.496-6.534l-24.806-16.029l-0.073,0.017l-0.081-0.052
				l0.015,0.067L72.575,131.994l42.689,186.445h-0.001l1.733,7.565l16.377-3.75l6.765,39.147h0l2.81,16.258l87.757-15.163
				l-6.68-38.661l43.252,6.146l-4.864,22.693c-0.419,1.954,0.826,3.879,2.782,4.298l73.824,15.822c1.956,0.42,3.88-0.825,4.299-2.78
				l0.217-1.011l2.19,0.47c1.955,0.418,3.879-0.826,4.298-2.781l3.712-17.319l0.16,0.035c1.122,0.241,2.273-0.696,2.573-2.093
				l0.969-4.522l1.593,0.227l3.015-21.214l19.49-0.008L381.516,276.433z"/>
			<polygon style="fill:#212441;" points="93.209,333.705 105.493,348.59 106.726,343.371 106.726,343.371 109.911,329.877 			"/>
			<polygon style="fill:#212441;" points="66.832,218.079 93.257,333.393 109.73,329.617 83.305,214.304 83.177,214.333 
				83.449,214.271 82.479,210.039 65.719,213.88 66.689,218.112 80.505,214.946 80.505,214.946 			"/>
			<path style="fill:#212441;" d="M79.881,210.212l2.491-0.571c-1.292-4.308-5.714-6.936-10.16-5.917
				c-0.244,0.055-0.481,0.125-0.716,0.201l0,0c-4.029,1.294-6.528,5.354-5.854,9.55L79.881,210.212L79.881,210.212z"/>
		</g>
		<g>
			<g>
				<g>
					
						<polygon style="fill:#E6E7E8;stroke:#3B4063;stroke-width:1.465;stroke-linecap:round;stroke-linejoin:round;stroke-miterlimit:10;" points="
						253.294,274.392 100.393,309.401 55.972,115.39 188.792,84.98 213.598,101.009 					"/>
					<path style="fill:#DCE6EB;" d="M204.37,95.149c0.694,3.208,30.076,128.435,32.502,139.544
						c1.168,5.337,6.125,24.753,5.518,29.142c-0.366,2.652-1.602,4.501-4.121,5.504c-3.882,1.546-97.183,22.754-139.61,32.496
						l1.733,7.566l152.901-35.009l-39.696-173.383L204.37,95.149z"/>
					
						<polygon style="fill:#CDCFD0;stroke:#3B4063;stroke-width:1.465;stroke-linecap:round;stroke-linejoin:round;stroke-miterlimit:10;" points="
						188.639,84.945 193.334,105.59 213.598,101.009 					"/>
					<g>
						<g>
							<g>
								
									<rect x="82.594" y="153.187" transform="matrix(0.9748 -0.2232 0.2232 0.9748 -31.4414 36.4037)" style="fill:#8CC0E8;stroke:#3B4063;stroke-width:1.465;stroke-linecap:round;stroke-linejoin:round;stroke-miterlimit:10;" width="125.476" height="8.229"/>
								
									<rect x="83.105" y="157.702" transform="matrix(0.9749 -0.2228 0.2228 0.9749 -31.8763 36.502)" style="fill:#A6CADB;" width="125.476" height="3.656"/>
							</g>
							<g>
								
									<rect x="85.707" y="166.779" transform="matrix(0.9748 -0.2232 0.2232 0.9748 -34.3951 37.4392)" style="fill:#8CC0E8;stroke:#3B4063;stroke-width:1.465;stroke-linecap:round;stroke-linejoin:round;stroke-miterlimit:10;" width="125.476" height="8.228"/>
								
									<rect x="86.23" y="171.408" transform="matrix(0.9748 -0.2232 0.2232 0.9748 -34.8905 37.6118)" style="fill:#A6CADB;" width="125.476" height="3.541"/>
							</g>
						</g>
						<g>
							
								<rect x="99.114" y="185.523" transform="matrix(0.9748 -0.2232 0.2232 0.9748 -47.6257 42.086)" style="fill:none;stroke:#3B4063;stroke-width:1.465;stroke-linecap:round;stroke-linejoin:round;stroke-miterlimit:10;" width="126.522" height="92.43"/>
							
								<line style="fill:none;stroke:#3B4063;stroke-width:1.465;stroke-linecap:round;stroke-linejoin:round;stroke-miterlimit:10;" x1="136.853" y1="195.799" x2="156.283" y2="280.668"/>
							
								<rect x="89.882" y="186.133" transform="matrix(0.9748 -0.2232 0.2232 0.9748 -38.8992 39.0217)" style="fill:#43486F;stroke:#3B4063;stroke-width:1.465;stroke-linecap:round;stroke-linejoin:round;stroke-miterlimit:10;" width="126.608" height="10.943"/>
							
								<rect x="90.478" y="191.41" transform="matrix(0.9748 -0.2233 0.2233 0.9748 -39.4778 39.2357)" style="fill:#ADBCC5;" width="126.608" height="5.599"/>
							
								<line style="fill:none;stroke:#3B4063;stroke-width:1.465;stroke-linecap:round;stroke-linejoin:round;stroke-miterlimit:10;" x1="98.689" y1="236.12" x2="221.475" y2="208.008"/>
							
								<line style="fill:none;stroke:#3B4063;stroke-width:1.465;stroke-linecap:round;stroke-linejoin:round;stroke-miterlimit:10;" x1="104.521" y1="261.585" x2="227.305" y2="233.473"/>
						</g>
					</g>
					<g>
						<g>
							
								<rect x="132.985" y="119.387" transform="matrix(0.9748 -0.2232 0.2232 0.9748 -24.0587 39.7939)" style="fill:#8CC0E8;stroke:#3B4063;stroke-width:1.465;stroke-linecap:round;stroke-linejoin:round;stroke-miterlimit:10;" width="62.061" height="13.887"/>
							
								<rect x="133.769" y="126.328" transform="matrix(0.9748 -0.2232 0.2232 0.9748 -24.8051 40.0586)" style="fill:#A6CADB;" width="62.061" height="6.858"/>
						</g>
						<g>
							
								<rect x="86.71" y="149.522" transform="matrix(0.9748 -0.2232 0.2232 0.9748 -30.8938 27.719)" style="fill:#43486F;" width="40.974" height="2.057"/>
							
								<rect x="81.831" y="128.217" transform="matrix(0.9748 -0.2232 0.2232 0.9748 -26.2646 26.0958)" style="fill:#43486F;" width="40.975" height="2.057"/>
							<g>
								<g>
									<path style="fill:#43486F;" d="M107.762,140.618L107.762,140.618l-5.772-8.193c-0.332-0.471-0.914-0.695-1.476-0.566
										l-1.007,0.23c-0.561,0.129-0.988,0.584-1.082,1.152l-1.63,9.882c-0.001,0.005-0.001,0.009-0.002,0.014l-0.999,6.054
										c-0.128,0.773,0.395,1.503,1.168,1.629c0.187,0.031,0.373,0.024,0.547-0.016c0.545-0.124,0.987-0.566,1.083-1.151
										l0.843-5.107l6.566-1.502l2.98,4.23c0.451,0.641,1.335,0.793,1.976,0.342c0.641-0.451,0.794-1.335,0.343-1.975
										L107.762,140.618z M99.933,141.522l0.948-5.746l3.354,4.761L99.933,141.522z"/>
									<path style="fill:#43486F;" d="M121.545,127.258c-0.718-0.31-1.553,0.022-1.862,0.741l-2.937,6.806l-5.24-4.889
										c-0.572-0.535-1.47-0.503-2.003,0.07c-0.536,0.572-0.503,1.469,0.068,2.004l5.981,5.581l-3.281,7.605
										c-0.311,0.719,0.021,1.553,0.739,1.863c0.288,0.125,0.594,0.145,0.876,0.081c0.426-0.097,0.801-0.389,0.987-0.82
										l2.88-6.672l5.136,4.792c0.357,0.333,0.842,0.447,1.285,0.346c0.266-0.062,0.518-0.2,0.719-0.414
										c0.534-0.573,0.503-1.47-0.07-2.005l-5.877-5.485l3.339-7.737C122.597,128.404,122.265,127.569,121.545,127.258z"/>
									<path style="fill:#43486F;" d="M94.27,136.334c0.762-0.175,1.24-0.936,1.065-1.698c-0.175-0.764-0.935-1.241-1.697-1.067
										l-9.615,2.202c-0.763,0.174-1.241,0.935-1.066,1.699c0.175,0.763,0.935,1.239,1.699,1.064l3.425-0.784l2.942,12.854
										c0.175,0.764,0.935,1.24,1.699,1.065c0.764-0.175,1.24-0.935,1.065-1.698l-2.943-12.854L94.27,136.334z"/>
								</g>
							</g>
						</g>
					</g>
				</g>
				<g>
					
						<polygon style="fill:#E6E7E8;stroke:#3B4063;stroke-width:1.465;stroke-linecap:round;stroke-linejoin:round;stroke-miterlimit:10;" points="
						342.426,326.417 187.127,304.349 215.128,107.297 350.031,126.467 367.451,150.316 					"/>
					<path style="fill:#DCE6EB;" d="M360.934,141.54c-0.499,3.245-17.912,130.688-19.623,141.93
						c-0.821,5.402-3.148,25.306-5.285,29.185c-1.293,2.346-3.107,3.628-5.818,3.663c-4.179,0.054-98.886-13.557-141.988-19.653
						l-1.092,7.685l155.299,22.068l25.025-176.101L360.934,141.54z"/>
					
						<polygon style="fill:#CDCFD0;stroke:#3B4063;stroke-width:1.465;stroke-linecap:round;stroke-linejoin:round;stroke-miterlimit:10;" points="
						349.9,126.379 346.891,147.337 367.451,150.316 					"/>
					<g>
						<g>
							
								<rect x="282.768" y="109.341" transform="matrix(0.1407 -0.9901 0.9901 0.1407 82.2824 421.226)" style="fill:#43486F;" width="2.057" height="107.742"/>
							
								<rect x="286.17" y="85.403" transform="matrix(0.1407 -0.9901 0.9901 0.1407 108.905 404.0222)" style="fill:#43486F;" width="2.057" height="107.742"/>
						</g>
						<g>
							
								<rect x="246.402" y="145.417" transform="matrix(0.1407 -0.9901 0.9901 0.1407 32.2782 454.5457)" style="fill:none;stroke:#3B4063;stroke-width:1.465;stroke-linecap:round;stroke-linejoin:round;stroke-miterlimit:10;" width="63.178" height="126.522"/>
							
								<line style="fill:none;stroke:#3B4063;stroke-width:1.465;stroke-linecap:round;stroke-linejoin:round;stroke-miterlimit:10;" x1="264.973" y1="180.463" x2="256.867" y2="237.511"/>
							
								<rect x="276.254" y="119.093" transform="matrix(0.1407 -0.9901 0.9901 0.1407 61.5076 435.6596)" style="fill:#43486F;stroke:#3B4063;stroke-width:1.465;stroke-linecap:round;stroke-linejoin:round;stroke-miterlimit:10;" width="10.944" height="126.608"/>
							
								<rect x="278.551" y="121.738" transform="matrix(0.1407 -0.99 0.99 0.1407 58.5535 437.5511)" style="fill:#ADBCC5;" width="5.599" height="126.609"/>
							
								<line style="fill:none;stroke:#3B4063;stroke-width:1.465;stroke-linecap:round;stroke-linejoin:round;stroke-miterlimit:10;" x1="216.349" y1="195.005" x2="341.058" y2="212.727"/>
							
								<line style="fill:none;stroke:#3B4063;stroke-width:1.465;stroke-linecap:round;stroke-linejoin:round;stroke-miterlimit:10;" x1="213.844" y1="212.623" x2="338.555" y2="230.345"/>
						</g>
						<g>
							<g>
								<g>
									
										<rect x="239.927" y="217.808" transform="matrix(0.1407 -0.9901 0.9901 0.1407 -36.2976 453.9185)" style="fill:#8CC0E8;stroke:#3B4063;stroke-width:1.465;stroke-linecap:round;stroke-linejoin:round;stroke-miterlimit:10;" width="6.833" height="60.123"/>
									
										<rect x="241.558" y="219.688" transform="matrix(0.1409 -0.99 0.99 0.1409 -38.4291 455.2134)" style="fill:#A6CADB;" width="3.036" height="60.122"/>
								</g>
								<g>
									
										<rect x="238.003" y="231.353" transform="matrix(0.1407 -0.9901 0.9901 0.1407 -51.3578 463.6562)" style="fill:#8CC0E8;stroke:#3B4063;stroke-width:1.465;stroke-linecap:round;stroke-linejoin:round;stroke-miterlimit:10;" width="6.832" height="60.122"/>
									
										<rect x="239.675" y="233.279" transform="matrix(0.1405 -0.9901 0.9901 0.1405 -53.4588 465.1017)" style="fill:#A6CADB;" width="2.94" height="60.123"/>
								</g>
								<g>
									
										<rect x="236.078" y="244.897" transform="matrix(0.1407 -0.9901 0.9901 0.1407 -66.422 473.3889)" style="fill:#8CC0E8;stroke:#3B4063;stroke-width:1.465;stroke-linecap:round;stroke-linejoin:round;stroke-miterlimit:10;" width="6.832" height="60.122"/>
									
										<rect x="237.709" y="246.777" transform="matrix(0.1406 -0.9901 0.9901 0.1406 -68.4908 474.7731)" style="fill:#A6CADB;" width="3.035" height="60.122"/>
								</g>
								<g>
									
										<rect x="262.656" y="233.702" transform="matrix(0.1407 -0.9901 0.9901 0.1407 -61.0048 514.8203)" style="fill:#8CC0E8;stroke:#3B4063;stroke-width:1.465;stroke-linecap:round;stroke-linejoin:round;stroke-miterlimit:10;" width="6.833" height="117.702"/>
									
										<rect x="264.287" y="235.582" transform="matrix(0.1405 -0.9901 0.9901 0.1405 -63.0577 516.2263)" style="fill:#A6CADB;" width="3.036" height="117.702"/>
								</g>
							</g>
							<g>
								<g>
									
										<rect x="279.27" y="250.817" transform="matrix(0.1407 -0.9901 0.9901 0.1407 -9.1422 503.4455)" style="fill:#8CC0E8;stroke:#3B4063;stroke-width:1.465;stroke-linecap:round;stroke-linejoin:round;stroke-miterlimit:10;" width="12.344" height="12.344"/>
									
										<rect x="297.947" y="253.471" transform="matrix(0.1407 -0.9901 0.9901 0.1407 4.2705 524.2064)" style="fill:#8CC0E8;stroke:#3B4063;stroke-width:1.465;stroke-linecap:round;stroke-linejoin:round;stroke-miterlimit:10;" width="12.344" height="12.344"/>
									
										<rect x="316.625" y="256.125" transform="matrix(0.1407 -0.9901 0.9901 0.1407 17.6963 544.9834)" style="fill:#8CC0E8;stroke:#3B4063;stroke-width:1.465;stroke-linecap:round;stroke-linejoin:round;stroke-miterlimit:10;" width="12.344" height="12.345"/>
								</g>
								<g>
									<g>
										<g>
											
												<rect x="282.091" y="254.067" transform="matrix(0.1408 -0.99 0.99 0.1408 -12.7953 505.7356)" style="fill:#A6CADB;" width="5.777" height="12.345"/>
										</g>
										<g>
											
												<rect x="300.769" y="256.722" transform="matrix(0.1407 -0.99 0.99 0.1407 0.6488 526.5356)" style="fill:#A6CADB;" width="5.777" height="12.345"/>
										</g>
										<g>
											
												<rect x="319.447" y="259.376" transform="matrix(0.1408 -0.99 0.99 0.1408 14.0419 547.2772)" style="fill:#A6CADB;" width="5.777" height="12.345"/>
										</g>
									</g>
								</g>
							</g>
							<g>
								<g>
									
										<rect x="276.339" y="271.431" transform="matrix(0.1406 -0.9901 0.9901 0.1406 -32.0672 518.2626)" style="fill:#8CC0E8;stroke:#3B4063;stroke-width:1.465;stroke-linecap:round;stroke-linejoin:round;stroke-miterlimit:10;" width="12.345" height="12.345"/>
									
										<rect x="295.018" y="274.086" transform="matrix(0.1407 -0.9901 0.9901 0.1407 -18.6484 539.0303)" style="fill:#8CC0E8;stroke:#3B4063;stroke-width:1.465;stroke-linecap:round;stroke-linejoin:round;stroke-miterlimit:10;" width="12.344" height="12.344"/>
									
										<rect x="313.696" y="276.739" transform="matrix(0.1407 -0.9901 0.9901 0.1407 -5.2223 559.807)" style="fill:#8CC0E8;stroke:#3B4063;stroke-width:1.465;stroke-linecap:round;stroke-linejoin:round;stroke-miterlimit:10;" width="12.344" height="12.345"/>
								</g>
								<g>
									<g>
										<g>
											
												<rect x="279.087" y="274.597" transform="matrix(0.1408 -0.99 0.99 0.1408 -35.6312 520.481)" style="fill:#A6CADB;" width="5.95" height="12.344"/>
										</g>
										<g>
											
												<rect x="297.766" y="277.252" transform="matrix(0.1407 -0.9901 0.9901 0.1407 -22.1721 541.3017)" style="fill:#A6CADB;" width="5.95" height="12.344"/>
										</g>
										<g>
											
												<rect x="316.444" y="279.905" transform="matrix(0.1408 -0.99 0.99 0.1408 -8.7711 562.0491)" style="fill:#A6CADB;" width="5.949" height="12.345"/>
										</g>
									</g>
								</g>
							</g>
						</g>
						<g>
							<g>
								<path style="fill:#43486F;" d="M256,148.253C255.999,148.253,255.999,148.253,256,148.253l-2.454-9.717
									c-0.142-0.558-0.605-0.975-1.175-1.056l-1.023-0.145c-0.57-0.081-1.132,0.19-1.423,0.687l-5.062,8.643
									c-0.002,0.004-0.004,0.007-0.007,0.012l-3.1,5.295c-0.396,0.675-0.17,1.543,0.506,1.939c0.164,0.096,0.34,0.156,0.517,0.18
									c0.552,0.08,1.124-0.175,1.423-0.687l2.615-4.466l6.669,0.948l1.268,5.018c0.19,0.76,0.963,1.219,1.721,1.027
									c0.76-0.192,1.22-0.962,1.027-1.721L256,148.253z M248.367,146.294l2.943-5.027l1.427,5.648L248.367,146.294z"/>
								<path style="fill:#43486F;" d="M273.654,140.716c-0.56-0.548-1.457-0.536-2.004,0.023l-5.18,5.304l-3.141-6.441
									c-0.344-0.705-1.192-0.997-1.895-0.653c-0.705,0.343-0.998,1.192-0.653,1.895l3.585,7.354l-5.787,5.924
									c-0.548,0.561-0.537,1.458,0.022,2.005c0.225,0.219,0.503,0.349,0.79,0.389c0.433,0.061,0.887-0.077,1.216-0.412
									l5.078-5.201l3.079,6.315c0.214,0.44,0.626,0.718,1.076,0.782c0.27,0.039,0.555,0,0.82-0.129
									c0.704-0.343,0.997-1.192,0.653-1.896l-3.524-7.225l5.89-6.03C274.226,142.162,274.215,141.264,273.654,140.716z"/>
								<path style="fill:#43486F;" d="M244.938,139.421c0.776,0.111,1.493-0.429,1.603-1.204c0.111-0.776-0.429-1.494-1.204-1.604
									l-9.764-1.387c-0.775-0.111-1.493,0.429-1.603,1.204c-0.111,0.776,0.428,1.493,1.204,1.604l3.479,0.494l-1.856,13.054
									c-0.11,0.776,0.43,1.494,1.206,1.604c0.774,0.11,1.492-0.429,1.602-1.205l1.855-13.055L244.938,139.421z"/>
							</g>
						</g>
					</g>
				</g>
			</g>
			<g>
				
					<rect x="113.562" y="212.022" transform="matrix(0.9854 -0.1703 0.1703 0.9854 -45.9229 31.054)" style="fill:#5564AE;stroke:#3B4063;stroke-width:1.465;stroke-linecap:round;stroke-linejoin:round;stroke-miterlimit:10;" width="89.058" height="142.492"/>
				
					<path style="fill:#8CC0E8;stroke:#3B4063;stroke-width:1.465;stroke-linecap:round;stroke-linejoin:round;stroke-miterlimit:10;" d="
					M206.607,338.487c0.108,0.628-0.334,1.227-0.988,1.34l-72.226,12.48c-0.653,0.113-1.271-0.303-1.38-0.932l-20.694-119.766
					c-0.109-0.628,0.334-1.228,0.987-1.34l72.225-12.48c0.654-0.112,1.273,0.304,1.381,0.931L206.607,338.487z"/>
				<path style="fill:#F4FBFE;" d="M184.532,217.789l-3.574,0.617l-53.549,106.598l2.933,16.156l57.086-113.673l-1.515-8.767
					C185.805,218.093,185.186,217.676,184.532,217.789z"/>
				<path style="fill:#F4FBFE;" d="M131.333,347.443l0.68,3.932c0.109,0.628,0.727,1.044,1.38,0.932l4.241-0.733l52.225-110.017
					l-1.83-10.588L131.333,347.443z"/>
				
					<path style="fill:#E6E7E8;stroke:#3B4063;stroke-width:1.465;stroke-linecap:round;stroke-linejoin:round;stroke-miterlimit:10;" d="
					M129.821,338.69l2.201,12.731c0.111,0.643,0.731,1.072,1.385,0.959l72.226-12.48c0.654-0.113,1.094-0.726,0.983-1.368
					l-2.2-12.731L129.821,338.69z"/>
				<g>
					<path style="fill:#3B4063;" d="M172.186,338.088c0.419,2.423-1.207,4.728-3.63,5.146c-2.423,0.418-4.727-1.207-5.146-3.63
						c-0.419-2.423,1.206-4.728,3.63-5.146C169.463,334.04,171.767,335.665,172.186,338.088z"/>
					<path style="fill:#3B4063;" d="M156.641,341.833c0.105,0.605-0.302,1.182-0.908,1.286l-16.18,2.796
						c-0.606,0.105-1.182-0.301-1.287-0.907l-0.354-2.057c-0.105-0.605,0.301-1.182,0.907-1.286l16.181-2.796
						c0.605-0.105,1.182,0.301,1.287,0.908L156.641,341.833z"/>
					<path style="fill:#3B4063;" d="M197.366,334.796c0.104,0.605-0.302,1.182-0.908,1.287l-16.181,2.795
						c-0.605,0.105-1.182-0.301-1.287-0.907l-0.355-2.057c-0.105-0.606,0.301-1.182,0.907-1.287l16.181-2.795
						c0.605-0.105,1.182,0.301,1.287,0.907L197.366,334.796z"/>
				</g>
				<path style="fill:#3B4063;" d="M128.04,221.995c0.273,1.578-0.786,3.078-2.363,3.351c-1.579,0.273-3.079-0.786-3.351-2.363
					c-0.272-1.577,0.785-3.077,2.363-3.35C126.267,219.36,127.768,220.418,128.04,221.995z"/>
				<path style="fill:#BDCADA;" d="M175.662,207.93c6.703,36.218,13.691,72.672,18.776,109.163
					c0.759,5.453,2.871,12.129-2.174,16.066c-3.808,2.973-50.146,8.483-68.73,11.639l2.81,16.258l87.757-15.164l-24.261-140.412
					L175.662,207.93z"/>
			</g>
			<g>
				
					<path style="fill:#F05382;stroke:#3B4063;stroke-width:1.465;stroke-linecap:round;stroke-linejoin:round;stroke-miterlimit:10;" d="
					M333.419,350.089c-0.419,1.955-2.343,3.199-4.299,2.781l-73.825-15.823c-1.955-0.419-3.2-2.342-2.78-4.298l12.715-59.33
					c0.419-1.955,2.343-3.2,4.299-2.781l73.825,15.823c1.955,0.419,3.198,2.344,2.781,4.298L333.419,350.089z"/>
				<g>
					
						<rect x="276.084" y="259.848" style="fill:#5564AE;stroke:#3B4063;stroke-width:1.465;stroke-linecap:round;stroke-linejoin:round;stroke-miterlimit:10;" width="88.838" height="45.365"/>
					
						<path style="fill:#8CC0E8;stroke:#3B4063;stroke-width:1.465;stroke-linecap:round;stroke-linejoin:round;stroke-miterlimit:10;" d="
						M358.016,274.469c-4.006,0.002-7.259-3.246-7.261-7.253c-0.001-0.867,0.159-1.696,0.438-2.465l-60.814,0.025
						c0.261,0.745,0.409,1.544,0.41,2.379c0.001,4.01-3.246,7.259-7.256,7.261c-1.237,0.001-2.404-0.313-3.424-0.86l0.006,17.468
						c1.021-0.548,2.186-0.863,3.425-0.863c4.009-0.002,7.259,3.248,7.262,7.255c0,1.031-0.216,2.007-0.604,2.897l61.138-0.026
						c-0.365-0.867-0.567-1.812-0.568-2.811c-0.001-4.007,3.25-7.258,7.255-7.258c1.022,0,1.995,0.212,2.876,0.595l-0.007-16.94
						C360.011,274.254,359.038,274.469,358.016,274.469z"/>
					
						<path style="fill:#5564AE;stroke:#3B4063;stroke-width:1.465;stroke-linecap:round;stroke-linejoin:round;stroke-miterlimit:10;" d="
						M342.221,274.731l-13.716,0.005c-2.121-2.457-5.252-4.016-8.753-4.015c-3.501,0.002-6.631,1.563-8.751,4.022l-13.718,0.005
						c-4.166,0.001-7.544,3.382-7.542,7.549c0.001,4.167,3.382,7.543,7.548,7.542l13.717-0.005c2.122,2.457,5.253,4.017,8.754,4.016
						c3.502-0.002,6.632-1.564,8.75-4.022l13.716-0.005c4.167-0.003,7.544-3.382,7.543-7.55
						C349.767,278.107,346.389,274.729,342.221,274.731z"/>
					
						<path style="fill:#8CC0E8;stroke:#3B4063;stroke-width:1.465;stroke-linecap:round;stroke-linejoin:round;stroke-miterlimit:10;" d="
						M328.553,282.174c0.003,4.733-3.831,8.57-8.565,8.572c-4.734,0.002-8.573-3.831-8.575-8.565
						c-0.002-4.737,3.834-8.575,8.568-8.576C324.714,273.604,328.551,277.438,328.553,282.174z"/>
					<path style="fill:#BCD8E6;" d="M319.982,273.605c-4.734,0.001-8.57,3.839-8.568,8.576c0.002,4.734,3.841,8.567,8.575,8.565
						c4.734-0.002,8.567-3.839,8.565-8.572C328.551,277.438,324.714,273.604,319.982,273.605z M319.985,287.603
						c-2.997,0.001-5.427-2.426-5.429-5.424c-0.001-2.998,2.427-5.428,5.426-5.429c2.997-0.002,5.426,2.427,5.427,5.426
						C325.411,285.172,322.983,287.602,319.985,287.603z"/>
					
						<path style="fill:#8CC0E8;stroke:#3B4063;stroke-width:1.465;stroke-linecap:round;stroke-linejoin:round;stroke-miterlimit:10;" d="
						M349.69,282.165c0.002,3.997-3.237,7.238-7.233,7.239c-3.999,0.001-7.238-3.236-7.24-7.233
						c-0.002-3.999,3.235-7.239,7.233-7.24C346.447,274.928,349.689,278.166,349.69,282.165z"/>
					<path style="fill:#3B4063;" d="M342.787,281.418c-0.684-0.039-1.497-0.205-1.497-0.792c0-0.66,0.458-1.04,1.26-1.04
						c0.695,0,1.26,0.466,1.26,1.04l2.018-0.001c0-1.154-1.03-2.127-2.427-2.415v-0.764l-1.697,0.001l0.001,0.751
						c-1.469,0.254-2.435,1.182-2.435,2.43c0,1.252,1.32,2.134,3.361,2.247c0.985,0.055,1.18,0.332,1.18,0.792
						c0,0.468-0.581,1.039-1.26,1.039c-0.695,0-1.26-0.465-1.26-1.038l-2.02,0c0,1.154,1.037,2.13,2.438,2.414v0.727l1.696-0.001
						v-0.737c1.363-0.302,2.426-1.297,2.426-2.406C345.829,282.345,344.72,281.525,342.787,281.418z"/>
					<g>
						
							<path style="fill:#8CC0E8;stroke:#3B4063;stroke-width:1.465;stroke-linecap:round;stroke-linejoin:round;stroke-miterlimit:10;" d="
							M304.265,282.117c0.003,3.997-3.236,7.237-7.233,7.24c-3.997,0-7.238-3.236-7.24-7.233c-0.002-3.999,3.236-7.239,7.233-7.24
							C301.023,274.882,304.263,278.119,304.265,282.117z"/>
						<path style="fill:#3B4063;" d="M297.362,281.372c-0.683-0.039-1.496-0.207-1.497-0.793c0-0.661,0.459-1.04,1.259-1.04
							c0.695,0,1.261,0.466,1.262,1.039l2.02-0.001c-0.002-1.153-1.033-2.126-2.429-2.413v-0.765l-1.698,0.001l0.001,0.75
							c-1.469,0.255-2.435,1.184-2.434,2.431c0,1.251,1.319,2.134,3.361,2.247c0.986,0.054,1.18,0.332,1.18,0.792
							c0,0.468-0.583,1.039-1.26,1.039c-0.695,0.001-1.26-0.466-1.26-1.039l-2.019,0c0,1.156,1.035,2.131,2.436,2.415l0.001,0.727
							l1.695-0.001v-0.737c1.364-0.303,2.426-1.298,2.426-2.406C300.405,282.298,299.296,281.478,297.362,281.372z"/>
					</g>
					<path style="fill:#C0CED5;" d="M356.483,259.778c-0.083,5.148,0.904,28.191-0.32,33.293c-0.668,2.787-2.493,4.4-5.389,4.608
						c-4.784,0.341-63.059-0.462-74.684-0.448l0.003,8l88.838-0.037l-0.019-45.364L356.483,259.778z"/>
				</g>
				
					<path style="fill:#F05382;stroke:#3B4063;stroke-width:1.465;stroke-linecap:round;stroke-linejoin:round;stroke-miterlimit:10;" d="
					M326.713,353.412c-0.418,1.955-2.343,3.2-4.299,2.78l-73.824-15.823c-1.956-0.419-3.201-2.344-2.782-4.298l12.717-59.33
					c0.418-1.955,2.343-3.201,4.298-2.781l73.824,15.823c1.956,0.419,3.201,2.343,2.781,4.298L326.713,353.412z"/>
				
					<path style="fill:#F05382;stroke:#3B4063;stroke-width:1.465;stroke-linecap:round;stroke-linejoin:round;stroke-miterlimit:10;" d="
					M339.863,330.712c-0.299,1.396-1.451,2.334-2.572,2.092l-28.973-6.21c-1.122-0.24-1.789-1.567-1.49-2.963l2.095-9.776
					c0.299-1.396,1.451-2.333,2.573-2.094l28.973,6.21c1.122,0.241,1.789,1.567,1.49,2.964L339.863,330.712z"/>
				
					<path style="fill:#FFD03F;stroke:#3F4469;stroke-width:1.465;stroke-linecap:round;stroke-linejoin:round;stroke-miterlimit:10;" d="
					M321.022,321.561c-0.578,2.699-3.236,4.419-5.936,3.84c-2.7-0.579-4.418-3.237-3.84-5.936c0.579-2.699,3.235-4.419,5.934-3.84
					C319.882,316.205,321.601,318.861,321.022,321.561z"/>
			</g>
			<g>
				
					<polygon style="fill:#FFD03F;stroke:#3F4469;stroke-width:1.465;stroke-linecap:round;stroke-linejoin:round;stroke-miterlimit:10;" points="
					88.89,331.986 76.605,317.102 93.308,313.274 				"/>
				
					<polygon style="fill:#43486F;stroke:#3B4063;stroke-width:1.465;stroke-linecap:round;stroke-linejoin:round;stroke-miterlimit:10;" points="
					85.464,327.835 88.89,331.986 90.122,326.768 				"/>
				
					<rect x="63.227" y="198.093" transform="matrix(0.9747 -0.2234 0.2234 0.9747 -55.6468 22.5087)" style="fill:#43486F;stroke:#3B4063;stroke-width:1.465;stroke-linecap:round;stroke-linejoin:round;stroke-miterlimit:10;" width="16.9" height="118.302"/>
				<path style="fill:#A9BFCB;" d="M63.901,198.342c5.254,23.279,10.183,46.639,15.685,69.854c1.55,6.54,2.765,13.162,4.329,19.692
					c1.309,5.462,3.418,11.176,3.385,16.856c-0.04,6.745-5.81,8.17-11.295,9.221l0.646,2.823l16.474-3.775L66.702,197.7
					L63.901,198.342z"/>
				
					<path style="fill:#F05382;stroke:#3B4063;stroke-width:1.465;stroke-linecap:round;stroke-linejoin:round;stroke-miterlimit:10;" d="
					M65.769,193.037c-1.292-4.307-5.714-6.936-10.16-5.916c-4.447,1.019-7.283,5.311-6.57,9.751L65.769,193.037z"/>
				<path style="fill:#C5A4B5;" d="M63.277,193.608l2.491-0.571c-1.292-4.307-5.714-6.936-10.16-5.916
					c-0.244,0.055-0.481,0.125-0.716,0.201C58.227,188.45,61.573,190.5,63.277,193.608z"/>
				
					<rect x="49.383" y="195.301" transform="matrix(0.9747 -0.2234 0.2234 0.9747 -42.6407 17.9385)" style="fill:#8CC0E8;stroke:#3B4063;stroke-width:1.465;stroke-linecap:round;stroke-linejoin:round;stroke-miterlimit:10;" width="17.194" height="4.341"/>
			</g>
		</g>
	</g>
	<g>
		<g>
			<g>
				<g>
					<path style="fill:#FFFFFF;" d="M259.115,74.807C259.115,74.807,259.115,74.807,259.115,74.807l-2.322-15.582
						c-0.131-0.895-0.794-1.62-1.67-1.835l-1.579-0.387c-0.878-0.216-1.8,0.121-2.333,0.853l-9.266,12.727
						c-0.004,0.005-0.01,0.012-0.013,0.018l-5.677,7.796c-0.725,0.996-0.506,2.39,0.49,3.113c0.241,0.176,0.506,0.297,0.779,0.364
						c0.854,0.209,1.786-0.101,2.336-0.854l4.788-6.575l10.283,2.524l1.198,8.044c0.183,1.219,1.316,2.058,2.534,1.878
						c1.217-0.181,2.057-1.315,1.876-2.533L259.115,74.807z M247.482,70.548l5.389-7.401l1.349,9.055L247.482,70.548z"/>
					<path style="fill:#FFFFFF;" d="M287.907,65.777c-0.792-0.944-2.198-1.066-3.14-0.277l-8.931,7.486l-3.905-10.566
						c-0.429-1.156-1.71-1.745-2.863-1.318c-1.155,0.427-1.745,1.709-1.318,2.864l4.457,12.062l-9.977,8.362
						c-0.943,0.791-1.067,2.196-0.275,3.141c0.314,0.377,0.729,0.622,1.175,0.732c0.665,0.163,1.398,0.018,1.964-0.457l8.755-7.339
						l3.827,10.357c0.267,0.721,0.869,1.222,1.562,1.393c0.417,0.102,0.869,0.085,1.301-0.074c1.156-0.427,1.747-1.709,1.318-2.864
						l-4.381-11.853l10.151-8.508C288.572,68.127,288.696,66.72,287.907,65.777z"/>
					<path style="fill:#FFFFFF;" d="M243.193,59.265c1.195,0.294,2.401-0.438,2.696-1.634c0.292-1.195-0.439-2.402-1.634-2.695
						L229.2,51.24c-1.196-0.293-2.403,0.438-2.696,1.633c-0.294,1.196,0.438,2.403,1.633,2.696l5.363,1.316l-4.942,20.129
						c-0.293,1.195,0.438,2.402,1.635,2.695c1.196,0.294,2.401-0.438,2.695-1.632l4.941-20.13L243.193,59.265z"/>
				</g>
			</g>
			<g>
				<path style="fill:#FFFFFF;" d="M333.798,93.236c-0.001-0.004-0.002-0.007-0.002-0.011l-2.417-16.573
					c-0.122-0.839-0.742-1.521-1.565-1.724l-1.665-0.408c-0.824-0.203-1.688,0.115-2.186,0.802l-9.814,13.566
					c-0.005,0.005-0.008,0.011-0.014,0.017l-6.013,8.313c-0.676,0.932-0.467,2.235,0.465,2.91c0.226,0.163,0.471,0.274,0.724,0.336
					c0.8,0.196,1.674-0.095,2.186-0.802l5.183-7.162l11.199,2.75l1.276,8.747c0.167,1.14,1.225,1.928,2.364,1.762
					c1.138-0.166,1.928-1.225,1.76-2.364L333.798,93.236z M321.317,88.855l6.349-8.774l1.564,10.716L321.317,88.855z"/>
				<path style="fill:#FFFFFF;" d="M314.275,86.157c1.949-7.938-1.212-14.455-7.872-16.508c-0.117-0.054-0.241-0.101-0.371-0.132
					l-5.689-1.397c-1.118-0.274-2.247,0.409-2.521,1.527l-5.79,23.583c-0.273,1.119,0.41,2.247,1.529,2.521l5.688,1.397
					c0.222,0.055,0.441,0.061,0.657,0.045C306.649,98.308,312.35,93.998,314.275,86.157z M299.849,92.94
					c-0.162-0.039-0.321-0.054-0.481-0.055l-2.79-0.684l4.796-19.536l3.256,0.799c5.895,1.447,6.7,7.206,5.598,11.699
					C309.124,89.656,305.744,94.388,299.849,92.94z"/>
				<path style="fill:#FFFFFF;" d="M359.848,82.851c-0.696-0.916-2.004-1.095-2.92-0.399l-11.932,9.058l-6.38-13.554
					c-0.49-1.041-1.732-1.488-2.773-0.997c-1.042,0.49-1.49,1.731-0.998,2.773l7.162,15.215l-2.516,10.252
					c-0.275,1.118,0.409,2.246,1.527,2.521c1.118,0.274,2.246-0.41,2.521-1.527l2.516-10.251l13.393-10.169
					C360.365,85.075,360.543,83.769,359.848,82.851z"/>
			</g>
		</g>
		<g>
			<path style="fill:#FFFFFF;" d="M350.764,119.638l-131.855-32.37c-4.783-1.174-7.719-6.021-6.544-10.804l7.097-28.916
				c1.175-4.783,6.022-7.719,10.805-6.545l131.855,32.37c4.782,1.174,7.719,6.021,6.545,10.804l-7.1,28.915
				C360.394,117.876,355.547,120.812,350.764,119.638z M229.698,43.317c-3.507-0.861-7.062,1.293-7.923,4.8l-7.099,28.916
				c-0.861,3.508,1.293,7.062,4.799,7.923l131.855,32.37c3.507,0.861,7.062-1.292,7.924-4.799l7.099-28.916
				c0.861-3.507-1.292-7.062-4.8-7.923L229.698,43.317z"/>
		</g>
	</g>
</g>
</svg>
